HIERARCHY
ROOT Hips
{
 OFFSET 0.000000 0.000000 0.000000
 CHANNELS 6 Xposition Yposition Zposition Yrotation Xrotation Zrotation
 JOINT Chest
 {
  OFFSET 0.000000 9.585900 0.002600
  CHANNELS 3 Yrotation Xrotation Zrotation
  JOINT Chest2
  {
   OFFSET 0.000000 9.601200 -0.005300
   CHANNELS 3 Yrotation Xrotation Zrotation
   JOINT Chest3
   {
    OFFSET 0.000000 9.561800 0.000000
    CHANNELS 3 Yrotation Xrotation Zrotation
    JOINT Chest4
    {
     OFFSET 0.000000 9.552100 0.000000
     CHANNELS 3 Yrotation Xrotation Zrotation
     JOINT Neck
     {
      OFFSET 0.000000 14.453000 0.000000
      CHANNELS 3 Yrotation Xrotation Zrotation
      JOINT Head
      {
       OFFSET 0.000000 8.936500 -0.011300
       CHANNELS 3 Yrotation Xrotation Zrotation
       End Site
       {
        OFFSET 0.000000 17.073600 -0.006000
       }
      }
     }
     JOINT RightCollar
     {
      OFFSET -2.921100 9.558500 0.000000
      CHANNELS 3 Yrotation Xrotation Zrotation
      JOINT RightShoulder
      {
       OFFSET -13.519700 0.000000 0.000000
       CHANNELS 3 Yrotation Xrotation Zrotation
       JOINT RightElbow
       {
        OFFSET 0.000000 -29.696600 0.000000
        CHANNELS 3 Yrotation Xrotation Zrotation
        JOINT RightWrist
        {
         OFFSET 0.000000 -24.004700 0.000000
         CHANNELS 3 Yrotation Xrotation Zrotation
         End Site
         {
          OFFSET 0.000000 -17.728500 0.000000
         }
        }
       }
      }
     }
     JOINT LeftCollar
     {
      OFFSET 2.921100 9.558500 0.000000
      CHANNELS 3 Yrotation Xrotation Zrotation
      JOINT LeftShoulder
      {
       OFFSET 13.519700 0.000000 0.000000
       CHANNELS 3 Yrotation Xrotation Zrotation
       JOINT LeftElbow
       {
        OFFSET 0.000000 -29.696600 0.000000
        CHANNELS 3 Yrotation Xrotation Zrotation
        JOINT LeftWrist
        {
         OFFSET 0.000000 -24.004700 0.000000
         CHANNELS 3 Yrotation Xrotation Zrotation
         End Site
         {
          OFFSET 0.000000 -17.728500 0.000000
         }
        }
       }
      }
     }
    }
   }
  }
 }
 JOINT RightHip
 {
  OFFSET -7.771700 -0.012900 -0.001300
  CHANNELS 3 Yrotation Xrotation Zrotation
  JOINT RightKnee
  {
   OFFSET 0.000000 -40.869800 0.001200
   CHANNELS 3 Yrotation Xrotation Zrotation
   JOINT RightAnkle
   {
    OFFSET 0.000000 -39.717900 0.002100
    CHANNELS 3 Yrotation Xrotation Zrotation
    JOINT RightToe
    {
     OFFSET 0.000000 -4.965400 11.033500
     CHANNELS 3 Yrotation Xrotation Zrotation
     End Site
     {
      OFFSET 0.000000 -1.423100 5.872300
     }
    }
   }
  }
 }
 JOINT LeftHip
 {
  OFFSET 7.771700 -0.012900 -0.001300
  CHANNELS 3 Yrotation Xrotation Zrotation
  JOINT LeftKnee
  {
   OFFSET 0.000000 -40.869800 0.001200
   CHANNELS 3 Yrotation Xrotation Zrotation
   JOINT LeftAnkle
   {
    OFFSET 0.000000 -39.717900 0.002100
    CHANNELS 3 Yrotation Xrotation Zrotation
    JOINT LeftToe
    {
     OFFSET 0.000000 -4.965400 11.033500
     CHANNELS 3 Yrotation Xrotation Zrotation
     End Site
     {
      OFFSET 0.000000 -1.423100 5.872300
     }
    }
   }
  }
 }
}
MOTION
Frames: 9
Frame Time: 0.008333
-49.370681 46.689322 10.675333 177.327423 -30.986140 -2.842557 -0.433618 18.818290 1.058611 -0.068006 2.188124 0.153333 -0.109234 3.613899 0.251992 -0.365050 16.334750 1.092843 -0.815710 17.825217 -2.814353 -0.544926 -2.698831 -5.005212 0.642564 1.014107 -2.162660 5.417546 -6.044998 -15.546148 -50.220272 -57.747989 99.662434 -1.882590 5.777180 -20.684905 -0.314297 0.136150 1.591575 -4.943530 -2.974427 14.121140 67.474910 -65.796737 -107.183248 0.509494 12.981403 12.099073 -3.532689 -56.385117 -8.685508 -160.505705 80.204641 -151.576904 -7.796743 -13.336220 -5.790938 0.035206 -0.184543 0.134927 1.605976 -57.951684 10.013216 -108.342098 81.011041 -113.173700 4.722250 -6.240246 6.284718 0.021163 0.203384 0.006948
-49.377569 46.675887 10.675878 177.328861 -30.976169 -2.833010 -0.445699 18.812557 1.053317 -0.073870 2.192430 0.163755 -0.105749 3.610144 0.243300 -0.370988 16.335456 1.097831 -0.816931 17.827436 -2.802493 -0.553599 -2.695328 -4.980653 0.637381 1.022872 -2.148490 5.424092 -6.050852 -15.558141 -50.223162 -57.732587 99.652210 -1.885445 5.787454 -20.672310 -0.312700 0.130548 1.582200 -4.981532 -2.972703 14.155703 67.479954 -65.772166 -107.164982 0.502098 13.006633 12.106213 -3.503514 -56.397530 -8.705927 -160.496908 80.209385 -151.573546 -7.784808 -13.300153 -5.826912 0.023642 -0.197730 0.161034 1.621451 -57.963991 10.006648 -108.306196 81.013175 -113.163362 4.719502 -6.247718 6.307928 0.041465 0.212572 0.011384
-49.381139 46.665063 10.674966 177.332901 -30.978612 -2.840826 -0.452806 18.818951 1.066138 -0.078395 2.197204 0.174291 -0.110978 3.612982 0.250604 -0.380153 16.333726 1.100589 -0.825203 17.837741 -2.765708 -0.595388 -2.669527 -4.869257 0.636615 1.026471 -2.150467 5.403564 -6.056128 -15.520959 -50.160511 -57.758623 99.596908 -1.888143 5.797834 -20.659956 -0.326930 0.120389 1.584027 -4.975114 -2.973777 14.139704 67.297885 -65.815898 -107.032722 0.541315 12.958833 12.161310 -3.460802 -56.404563 -8.706564 -160.392697 80.200725 -151.471188 -7.791692 -13.208199 -5.866624 0.022519 -0.244747 0.191782 1.608923 -57.962722 10.030504 -108.266498 81.005637 -113.138892 4.714359 -6.262552 6.317830 0.044946 0.229268 0.017841
-49.386549 46.654891 10.674923 177.327091 -30.974699 -2.831146 -0.459214 18.822974 1.075202 -0.078546 2.198240 0.173192 -0.115732 3.616132 0.258115 -0.387610 16.331494 1.105558 -0.837597 17.848452 -2.732443 -0.623455 -2.657556 -4.814929 0.632778 1.029503 -2.153252 5.394371 -6.068046 -15.504634 -50.109793 -57.770457 99.551423 -1.898200 5.801525 -20.653139 -0.341919 0.110658 1.583609 -4.970941 -2.975165 14.125485 67.280250 -65.811124 -107.007827 0.541128 12.978672 12.174427 -3.410983 -56.413800 -8.722948 -160.290263 80.195843 -151.375160 -7.805232 -13.163571 -5.857347 0.033832 -0.246464 0.173321 1.637057 -57.967599 10.021525 -108.220300 80.994714 -113.099348 4.686820 -6.270386 6.329820 0.051799 0.240776 0.022276
-49.397234 46.645282 10.675242 177.335006 -30.964986 -2.796496 -0.488033 18.821743 1.048147 -0.075931 2.197282 0.169123 -0.119260 3.620452 0.264342 -0.398844 16.330273 1.113092 -0.845429 17.855571 -2.711837 -0.646186 -2.651049 -4.772204 0.638390 1.026156 -2.169062 5.392113 -6.074139 -15.500680 -50.088203 -57.776624 99.532868 -1.924488 5.788951 -20.652213 -0.353679 0.101959 1.582991 -4.986323 -2.974261 14.134145 67.293712 -65.789342 -106.995839 0.526470 13.028651 12.188791 -3.334761 -56.427427 -8.802025 -160.195656 80.185735 -151.286510 -7.811811 -13.138412 -5.843416 0.049935 -0.206006 0.124253 1.696531 -57.976962 9.946830 -108.196818 80.994105 -113.085208 4.660654 -6.302071 6.334549 0.077921 0.276164 0.032115
-49.402803 46.638347 10.673761 177.343582 -30.970369 -2.791916 -0.505797 18.848096 1.067423 -0.070878 2.179268 0.141841 -0.123352 3.630520 0.279176 -0.411772 16.331872 1.120146 -0.852318 17.858315 -2.693666 -0.670632 -2.647628 -4.732000 0.645410 1.019075 -2.186144 5.389350 -6.080480 -15.494947 -50.090015 -57.756205 99.529690 -1.916412 5.794277 -20.645757 -0.374136 0.097347 1.609515 -4.993418 -2.983848 14.111365 67.260735 -65.781829 -106.945815 0.531421 13.008448 12.207088 -3.313744 -56.425307 -8.827403 -160.156258 80.174784 -151.257907 -7.786354 -13.106206 -5.827422 0.028430 -0.209161 0.100173 1.722338 -57.972551 9.923936 -108.172975 80.985706 -113.059638 4.638250 -6.308034 6.337675 0.083399 0.283541 0.039747
-49.409035 46.631954 10.673051 177.348194 -30.970533 -2.780751 -0.515159 18.856138 1.065306 -0.075831 2.183826 0.146676 -0.121564 3.629707 0.281436 -0.426840 16.342624 1.138239 -0.860384 17.850275 -2.690569 -0.689593 -2.649223 -4.715206 0.659420 1.018532 -2.186014 5.382635 -6.097676 -15.504295 -50.076632 -57.749665 99.517476 -1.894132 5.808576 -20.649106 -0.373968 0.078948 1.587693 -5.033516 -2.981969 14.157824 67.295455 -65.746585 -106.937579 0.526446 12.997610 12.209604 -3.286681 -56.423184 -8.869919 -160.266839 80.182259 -151.361805 -7.792097 -13.097914 -5.824544 0.024399 -0.202136 0.082796 1.749247 -57.973116 9.892530 -108.163884 80.983704 -113.052253 4.626488 -6.312451 6.344055 0.093559 0.290071 0.041480
-49.415450 46.625598 10.673830 177.356792 -30.960754 -2.769393 -0.528194 18.849028 1.052962 -0.078133 2.201095 0.180227 -0.123048 3.620308 0.264550 -0.432845 16.338512 1.129037 -0.866121 17.856367 -2.658145 -0.718192 -2.648950 -4.679879 0.661628 1.014819 -2.192901 5.379228 -6.099455 -15.472962 -50.066950 -57.745350 99.504645 -1.891969 5.800501 -20.650759 -0.376788 0.073751 1.581295 -5.033891 -2.982931 14.161015 67.261015 -65.762920 -106.909920 0.512098 12.992334 12.219566 -3.276136 -56.430413 -8.899378 -160.405582 80.195091 -151.501468 -7.806577 -13.104375 -5.823462 0.019296 -0.192528 0.076759 1.770368 -57.982730 9.861443 -108.141512 80.989397 -113.039518 4.614390 -6.313432 6.360868 0.079581 0.295242 0.037189
-49.421026 46.619483 10.675671 177.356382 -30.945373 -2.756423 -0.535987 18.842432 1.058047 -0.075171 2.201504 0.179473 -0.123386 3.621556 0.266210 -0.431350 16.351841 1.165379 -0.889863 17.843407 -2.671713 -0.755570 -2.648585 -4.625114 0.663643 1.000326 -2.225183 5.393054 -6.097688 -15.429564 -50.047173 -57.770564 99.459474 -1.917138 5.754918 -20.654139 -0.395648 0.051396 1.552436 -5.030070 -2.983256 14.168560 67.281607 -65.765839 -106.928643 0.525495 12.981136 12.224084 -3.270408 -56.444915 -8.918809 -160.543200 80.211191 -151.638566 -7.823337 -13.107446 -5.834722 0.030181 -0.173576 0.068794 1.802761 -58.000450 9.826865 -108.116266 80.994052 -113.018282 4.617521 -6.308060 6.372502 0.084833 0.290917 0.036491
